name C:\Users\u0101727\Documents\MyRepositories\upper-imu-dc\Results\main_tracking\Case_73\kinematics.mot
datacolumns 43
datarows 5
range 3.48000000 3.56000000
endheader 
time	clav_prot	clav_elev	scapula_abduction	scapula_elevation	scapula_upward_rot	scapula_winging	plane_elv	shoulder_elv	axial_rot	TrapeziusScapula_M/activation	TrapeziusScapula_S/activation	TrapeziusScapula_I/activation	TrapeziusClavicle_S/activation	SerratusAnterior_I/activation	SerratusAnterior_M/activation	SerratusAnterior_S/activation	Rhomboideus_S/activation	Rhomboideus_I/activation	LevatorScapulae/activation	Coracobrachialis/activation	DeltoideusClavicle_A/activation	DeltoideusScapula_P/activation	DeltoideusScapula_M/activation	LatissimusDorsi_S/activation	LatissimusDorsi_M/activation	LatissimusDorsi_I/activation	PectoralisMajorClavicle_S/activation	PectoralisMajorThorax_I/activation	PectoralisMajorThorax_M/activation	TeresMajor/activation	Infraspinatus_I/activation	Infraspinatus_S/activation	PectoralisMinor/activation	TeresMinor/activation	Subscapularis_S/activation	Subscapularis_M/activation	Subscapularis_I/activation	Supraspinatus_P/activation	Supraspinatus_A/activation	TRIlong/activation	BIC_long/activation	BIC_brevis/activation	
          3.48000000	        -21.60120322	         -5.51309363	        -10.64920880	         -4.84278393	         12.76515372	          5.80430176	        -19.98278775	         31.35026030	         17.91538730	          0.01000000	          0.06336910	          0.01000000	          0.03000468	          0.04061158	          0.06802028	          0.01000000	          0.01106806	          0.01000000	          0.03221248	          0.01000000	          0.04039805	          0.01000000	          0.06198301	          0.01000000	          0.01000000	          0.01000000	          0.02955260	          0.01000000	          0.01000000	          0.01000000	          0.01932264	          0.02190937	          0.01000000	          0.01000000	          0.01000000	          0.01000000	          0.01000000	          0.01356473	          0.02734248	          0.01000000	          0.04555572	          0.01037807	
          3.50000000	        -21.84939838	         -5.32539331	        -10.77482403	         -4.87022630	         13.36704265	          5.60848598	        -19.76807086	         32.15924416	         17.09448487	          0.01000000	          0.06287383	          0.01000000	          0.02958753	          0.03964094	          0.06800684	          0.01000000	          0.01111797	          0.01000000	          0.03231749	          0.01000000	          0.03941532	          0.01000000	          0.06222424	          0.01000000	          0.01000000	          0.01000000	          0.02839990	          0.01000000	          0.01000000	          0.01000000	          0.01938205	          0.02186693	          0.01000000	          0.01000000	          0.01000000	          0.01000000	          0.01000000	          0.01354154	          0.02686523	          0.01000000	          0.04466871	          0.01000018	
          3.52000000	        -22.09831748	         -5.13192249	        -10.90528583	         -4.88976375	         13.95931898	          5.41083880	        -19.53692454	         32.97790470	         16.30422953	          0.01000000	          0.06205658	          0.01000000	          0.02910298	          0.03834726	          0.06773332	          0.01000000	          0.01115033	          0.01000000	          0.03238351	          0.01000000	          0.03809370	          0.01000000	          0.06223331	          0.01000000	          0.01000000	          0.01000000	          0.02698814	          0.01000000	          0.01000000	          0.01000000	          0.01937568	          0.02176861	          0.01000000	          0.01000000	          0.01000000	          0.01000000	          0.01000000	          0.01341928	          0.02617356	          0.01000000	          0.04341469	          0.01000002	
          3.54000000	        -22.34783598	         -4.93606328	        -11.04477616	         -4.90191686	         14.53362149	          5.21466471	        -19.29428224	         33.80348590	         15.55685115	          0.01000000	          0.06095743	          0.01000000	          0.02855162	          0.03677032	          0.06716591	          0.01000000	          0.01116871	          0.01000000	          0.03243411	          0.01000000	          0.03644566	          0.01000000	          0.06190350	          0.01000000	          0.01000000	          0.01000000	          0.02534682	          0.01000000	          0.01000000	          0.01000000	          0.01931487	          0.02163846	          0.01000000	          0.01000000	          0.01000000	          0.01000000	          0.01000000	          0.01319552	          0.02527030	          0.01000000	          0.04179717	          0.01000001	
          3.56000000	        -22.59807797	         -4.74081987	        -11.19783841	         -4.90711530	         15.08209805	          5.02302122	        -19.04614197	         34.63112047	         14.86135238	          0.01000000	          0.05961326	          0.01000000	          0.02794599	          0.03481018	          0.06637685	          0.01000000	          0.01115995	          0.01000001	          0.03235809	          0.01000000	          0.03442078	          0.01000000	          0.06115982	          0.01000000	          0.01000000	          0.01000000	          0.02350851	          0.01000000	          0.01000000	          0.01000000	          0.01927523	          0.02143495	          0.01000000	          0.01000000	          0.01000000	          0.01000000	          0.01000000	          0.01285088	          0.02412348	          0.01000000	          0.03992508	          0.01000000	
